<svg width="75" height="43" viewBox="0 0 75 43" fill="none" xmlns="http://www.w3.org/2000/svg">
  <path d="M73.9766 2.21549V12.732C73.9766 13.0433 73.8546 13.3417 73.6374 13.5618C73.4203 13.7819 73.1257 13.9055 72.8186 13.9055H50.2023C50.871 13.4138 51.591 12.9981 52.3493 12.6658C55.7748 10.5052 45.2925 9.73939 40.3926 9.50242C36.8154 4.1103 30.9176 1.28984 24.9138 1.04199H72.8186C73.1257 1.04199 73.4203 1.16563 73.6374 1.3857C73.8546 1.60577 73.9766 1.90426 73.9766 2.21549Z" fill="#FB7143" stroke="#FB7143" stroke-miterlimit="10"/>
  <path d="M29.3185 20.4149L34.2021 39.303C22.574 46.0195 4.5444 40.0825 4.23682 21.4981C4.47019 7.44263 14.8432 0.623484 24.9138 1.04208H23.8123V13.9075H34.4607L29.3185 20.4149Z" fill="#FB7143" stroke="#FB7143" stroke-miterlimit="10"/>
  <path d="M40.3931 9.50233C38.9662 9.43422 38.0126 9.41104 38.0126 9.41104L34.4616 13.9045H23.8127V1.03906H24.9143C30.9185 1.28975 36.8159 4.11021 40.3931 9.50233Z" fill="#FB7143" stroke="#FB7143" stroke-miterlimit="10"/>
  <path d="M42.1364 30.2178C40.4879 34.1852 37.7733 37.1485 34.5308 39.11C38.4155 36.5564 40.6242 33.4365 42.1364 30.2178Z" fill="#FB7143" stroke="#FB7143" stroke-miterlimit="10"/>
  <path d="M42.5644 13.9055H34.4607L38.0117 9.41211C38.0117 9.41211 38.9662 9.43529 40.3921 9.5034C41.2982 10.8711 42.0282 12.3504 42.5644 13.9055Z" fill="#FB7143" stroke="#FB7143" stroke-miterlimit="10"/>
  <path d="M52.3498 12.6658C51.5915 12.9981 50.8715 13.4139 50.2028 13.9055H42.5644C42.029 12.3502 41.2998 10.8706 40.3945 9.50244C45.2931 9.73941 55.7734 10.5052 52.3498 12.6658Z" fill="#FB7143" stroke="#FB7143" stroke-miterlimit="10"/>
  <path d="M43.848 21.5001C43.793 24.8059 43.1782 27.7115 42.1365 30.2179C40.6242 33.4366 38.4155 36.556 34.5308 39.1102C34.4225 39.1754 34.3123 39.2402 34.2041 39.3041L29.3186 20.4151L34.4608 13.9058H42.5645C43.3449 16.1454 43.8004 18.6764 43.848 21.5001Z" fill="#FB7143" stroke="#FB7143" stroke-miterlimit="10"/>
  <path d="M34.2021 39.3028C34.3123 39.239 34.4225 39.1742 34.5289 39.1089C34.422 39.1789 34.3151 39.2508 34.2049 39.318L34.2021 39.3028Z" fill="#FB7143" stroke="#FB7143" stroke-miterlimit="10"/>
  <path d="M50.2024 13.9058C45.3949 17.4613 45.0532 24.0198 42.1365 30.2179C43.1783 27.711 43.793 24.8059 43.848 21.5001C43.8014 18.6764 43.3449 16.1454 42.5631 13.9058H50.2024Z" fill="#FB7143" stroke="#FB7143" stroke-miterlimit="10"/>
  <path d="M2.48063 25.3664C0.675717 23.5425 -0.81788 21.195 2.47597 17.6613C2.51711 17.6186 2.57051 17.5901 2.62856 17.5799C2.68661 17.5697 2.74637 17.5783 2.79931 17.6045C2.85226 17.6307 2.8957 17.6731 2.92346 17.7258C2.95122 17.7784 2.96188 17.8386 2.95392 17.8978C2.72474 19.2737 2.41156 22.0715 2.95065 25.1176C2.9596 25.1761 2.95022 25.2361 2.92384 25.289C2.89746 25.3419 2.8554 25.3851 2.80356 25.4125C2.75171 25.44 2.6927 25.4503 2.63478 25.442C2.57687 25.4337 2.52296 25.4073 2.48063 25.3664Z" fill="#FB7143" stroke="#FB7143" stroke-miterlimit="10"/>
  <path d="M51.4949 13.9055C51.4949 13.9055 50.2202 13.9055 49.7105 14.2924C49.2008 14.6793 49.6596 13.5957 49.6596 13.5957H51.0361L51.4949 13.9055Z" fill="#FB7143" stroke="#FB7143" stroke-miterlimit="10"/>
  <path d="M31.6926 24.9915C31.5991 24.5126 31.4243 24.0537 31.1759 23.6354C31.1227 23.5456 31.0657 23.4585 31.0064 23.372C30.5935 22.7798 30.0093 22.2543 29.2538 21.7955C28.3894 21.2705 27.1914 20.7891 25.6598 20.3514C24.1283 19.9138 23.0443 19.4323 22.408 18.9069C21.7717 18.3813 21.4536 17.7371 21.4539 16.9743C21.4516 16.6706 21.4912 16.3681 21.5716 16.0756C21.7181 15.5471 22.0291 15.0808 22.4584 14.746C23.1118 14.2257 23.9478 13.9216 25.1011 13.9074C25.1301 13.9074 25.159 13.9074 25.1879 13.9074C25.6899 13.9028 26.1903 13.9648 26.6764 14.0919C27.6652 14.3167 28.5988 14.7424 29.4207 15.3431C30.2427 15.9438 30.936 16.707 31.4587 17.5868H31.763C31.7692 16.5738 31.486 15.5806 30.9476 14.7271C30.4034 13.8549 29.6357 13.1714 28.6447 12.6767C28.5392 12.6242 28.4318 12.5745 28.3236 12.5281C27.6669 12.2461 26.9726 12.0642 26.2633 11.9885C25.9307 11.951 25.5963 11.9326 25.2617 11.9331C23.405 11.9331 21.8969 12.4135 20.7375 13.3743C19.5862 14.3323 19.0066 15.5406 18.9988 16.9993V17.0225C18.9949 17.5629 19.0881 18.0995 19.2738 18.6061C19.5074 19.2352 19.8913 19.7984 20.4252 20.2956C21.3737 21.1808 22.8894 21.9262 24.9723 22.532C26.6349 23.0201 27.7818 23.5139 28.4132 24.0134C29.0445 24.5128 29.3607 25.2201 29.3616 26.1352C29.3616 27.0497 29.0193 27.7719 28.3348 28.302C28.31 28.3204 28.2881 28.3394 28.2596 28.3578C27.5807 28.8507 26.6232 29.0966 25.3872 29.0957C25.3018 29.0957 25.2159 29.0957 25.1319 29.0924C25.0997 29.0924 25.068 29.0924 25.0358 29.0924C23.7483 29.0928 22.4824 28.7571 21.3602 28.1175C20.2381 27.4779 19.2975 26.556 18.6292 25.4409H18.4182C18.4182 26.5259 18.7154 27.4962 19.3097 28.3517C19.904 29.2071 20.7493 29.8797 21.8455 30.3694C22.9421 30.861 24.1227 31.107 25.3872 31.1073C25.7666 31.1073 26.1317 31.0898 26.4827 31.0548C27.9261 30.8133 29.2949 30.2367 30.4818 29.37C31.3612 28.5098 31.8011 27.4219 31.8018 26.1064C31.8044 25.7319 31.7678 25.3582 31.6926 24.9915Z" fill="white"/>
  <path d="M25.1892 13.9056C25.1603 13.9056 25.1314 13.9056 25.1024 13.9056C25.6325 13.9087 26.1607 13.9701 26.6777 14.0886C26.1916 13.962 25.6912 13.9005 25.1892 13.9056ZM28.3249 12.5263C27.2381 12.1057 26.0846 11.8903 24.9213 11.8906C19.6634 11.8906 15.3997 16.21 15.3997 21.5397C15.3997 26.8694 19.662 31.1888 24.9213 31.1888C27.1461 31.1883 29.3005 30.3984 31.0105 28.9561C32.7205 27.5138 33.8782 25.5103 34.2825 23.2933C34.6868 21.0762 34.3123 18.7857 33.2239 16.8194C32.1356 14.853 30.4021 13.3349 28.3244 12.5287L28.3249 12.5263ZM28.2605 28.3584C27.283 28.8304 26.2159 29.081 25.1332 29.0929C25.101 29.0929 25.0693 29.0929 25.0371 29.0929C24.048 29.1008 23.0672 28.9102 22.1511 28.5321C21.2351 28.1541 20.4019 27.5959 19.6998 26.89C18.9976 26.184 18.4403 25.3441 18.06 24.4189C17.6796 23.4936 17.4838 22.5011 17.4838 21.4988C17.4838 20.4964 17.6796 19.504 18.06 18.5787C18.4403 17.6534 18.9976 16.8136 19.6998 16.1076C20.4019 15.4016 21.2351 14.8435 22.1511 14.4654C23.0672 14.0873 24.048 13.8967 25.0371 13.9046C25.0586 13.9046 25.0814 13.9046 25.1029 13.9046C25.633 13.9077 26.1612 13.9691 26.6782 14.0877C28.2001 14.4332 29.5778 15.2513 30.6192 16.4279C31.6606 17.6045 32.3139 19.0809 32.488 20.6516C32.6622 22.2222 32.3485 23.8088 31.5907 25.1902C30.8329 26.5717 29.6688 27.6791 28.2605 28.3584Z" fill="white"/>
</svg>
